<?xml version="1.0" encoding="utf-8"?>
<!-- Generator: Adobe Illustrator 21.0.2, SVG Export Plug-In . SVG Version: 6.00 Build 0)  -->
<svg version="1.1" id="Capa_1" xmlns="http://www.w3.org/2000/svg" xmlns:xlink="http://www.w3.org/1999/xlink" x="0px" y="0px"
	 width="538px" height="538px" viewBox="0 0 538 538" style="enable-background:new 0 0 538 538;" xml:space="preserve">
<style type="text/css">
	.st0{fill:#263238;}
</style>
<g>
	<path class="st0" d="M412.2,162.2h-23.6c0,0,0-22.5,0-23.1c0-36.3-29.5-65.8-65.8-65.8c-7,0-13.9,1.1-20.5,3.3
		C290,32.1,249.3,0,202,0s-88,32-100.3,76.7c-6.6-2.2-13.5-3.3-20.5-3.3c-36.3,0-65.8,29.5-65.8,65.8c0,0.6,0,299.9,0,299.9
		c0,54.6,44.4,99,99,99h175.1c54.6,0,99-44.4,99-99v-3.3h23.6c60.9,0,110.4-44.3,110.4-98.8V261C522.6,206.5,473,162.2,412.2,162.2z
		 M81.2,96.2c8,0,15.8,2.3,22.8,6.7c3.3,2.1,7.5,2.3,11,0.7s6-5.1,6.5-9c5-40.9,39.6-71.7,80.5-71.7c40.9,0,75.6,30.8,80.5,71.7
		c0.5,3.9,2.9,7.3,6.4,9c3.5,1.7,7.7,1.4,11-0.7c7-4.4,14.9-6.7,22.8-6.7c23.7,0,42.9,19.3,42.9,42.9s-19.2,42.9-42.9,42.9
		c-7.5,0-14.7-2.1-21.6-6.1c-3.1-1.8-6.8-2.1-10.2-0.7c-3.3,1.4-5.8,4.2-6.7,7.7c-5,18.9-22,32.1-41.4,32.1
		c-13.7,0-26.7-6.7-34.8-18.1c-2.2-3-5.6-4.8-9.3-4.8s-7.2,1.8-9.3,4.8c-8.1,11.3-21.1,18.1-34.8,18.1c-18.5,0-34.8-12-40.6-29.8
		c-1-3.1-3.3-5.6-6.2-6.9c-3-1.3-6.3-1.3-9.3,0c-5.6,2.4-11.4,3.7-17.3,3.7c-23.7,0-42.9-19.3-42.9-42.9S57.6,96.2,81.2,96.2z
		 M96.9,447.4c-9.5,0-17.2-7.7-17.2-17.2V220.1c0-7.3,4.6-13.5,11-16c2-0.3,4-0.6,6-1.1c4.3,8.2,10.3,15.2,17.3,20.8v206.4
		C114.1,439.8,106.4,447.4,96.9,447.4z M202,447.4c-9.5,0-17.2-7.7-17.2-17.2v-200c5-2.6,9.7-5.6,13.9-9.4c6,5.4,12.9,9.7,20.4,12.7
		v196.8C219.2,439.8,211.5,447.4,202,447.4z M324.3,430.3c0,9.5-7.7,17.2-17.2,17.2c-9.5,0-17.2-7.7-17.2-17.2V217.9
		c3.8-3.9,7.1-8.4,9.9-13.2c2.2-1,4.7-1.7,7.3-1.7c9.5,0,17.2,7.7,17.2,17.2L324.3,430.3L324.3,430.3z M476.8,336.9
		c0,29.2-29,53-64.6,53h-23.6V208h23.6c35.6,0,64.6,23.8,64.6,53V336.9z"/>
</g>
</svg>
