<?xml version="1.0" encoding="iso-8859-1"?>
<!-- Generator: Adobe Illustrator 19.0.0, SVG Export Plug-In . SVG Version: 6.00 Build 0)  -->
<svg version="1.1" id="Capa_1" xmlns="http://www.w3.org/2000/svg" xmlns:xlink="http://www.w3.org/1999/xlink" x="0px" y="0px"
	 viewBox="0 0 538.043 538.043" style="enable-background:new 0 0 538.043 538.043;" xml:space="preserve">
<g>
	<path d="M412.153,162.214h-23.59c0,0,0-22.478,0-23.076c0-36.276-29.521-65.809-65.785-65.809c-6.959,0-13.893,1.148-20.505,3.348
		C289.993,32.055,249.293,0,202.017,0S114.041,32.043,101.75,76.677c-6.6-2.2-13.523-3.336-20.505-3.336
		c-36.276,0-65.797,29.533-65.797,65.809c0,0.61,0,299.881,0,299.881c0,54.605,44.418,99.012,99.024,99.012h175.115
		c54.569,0,98.988-44.406,98.988-99.012v-3.336h23.59c60.906,0,110.43-44.323,110.43-98.809v-75.876
		C522.595,206.537,473.036,162.214,412.153,162.214z M81.233,96.238c7.963,0,15.83,2.308,22.765,6.684
		c3.324,2.104,7.485,2.344,11.024,0.67s5.978-5.058,6.457-8.955c4.986-40.891,39.612-71.727,80.527-71.727
		c40.927,0,75.553,30.836,80.539,71.727c0.466,3.898,2.894,7.258,6.445,8.955c3.527,1.674,7.7,1.423,11-0.658
		c6.983-4.376,14.85-6.696,22.789-6.696c23.662,0,42.9,19.25,42.9,42.912s-19.226,42.912-42.9,42.912
		c-7.497,0-14.742-2.056-21.641-6.098c-3.085-1.805-6.839-2.092-10.187-0.717c-3.312,1.363-5.811,4.221-6.708,7.7
		c-4.95,18.915-21.952,32.139-41.358,32.139c-13.714,0-26.747-6.743-34.817-18.054c-2.152-2.989-5.62-4.783-9.314-4.783
		c-3.694,0-7.162,1.781-9.302,4.783c-8.083,11.299-21.115,18.054-34.841,18.054c-18.509,0-34.817-11.969-40.592-29.772
		c-0.992-3.085-3.252-5.596-6.206-6.911c-2.977-1.327-6.337-1.339-9.29-0.024c-5.572,2.439-11.395,3.694-17.301,3.694
		c-23.662,0-42.9-19.25-42.9-42.912S57.583,96.238,81.233,96.238z M96.943,447.449c-9.482,0-17.182-7.688-17.182-17.182V220.143
		c0-7.317,4.603-13.523,11.048-15.998c1.997-0.299,3.994-0.598,5.966-1.088c4.328,8.178,10.282,15.197,17.337,20.781v206.429
		C114.113,439.761,106.425,447.449,96.943,447.449z M202.017,447.449c-9.482,0-17.17-7.688-17.17-17.182V230.246
		c4.974-2.606,9.745-5.62,13.941-9.422c6.002,5.44,12.925,9.721,20.41,12.662v196.804
		C219.199,439.761,211.487,447.449,202.017,447.449z M324.261,430.267c0,9.494-7.712,17.182-17.193,17.182
		c-9.457,0-17.182-7.688-17.182-17.182V217.895c3.814-3.945,7.126-8.405,9.864-13.248c2.236-1.04,4.699-1.662,7.305-1.662
		c9.482,0,17.181,7.688,17.181,17.17L324.261,430.267L324.261,430.267z M476.802,336.887c0,29.21-29.006,53.015-64.649,53.015
		h-23.59V208.007h23.59c35.642,0,64.649,23.782,64.649,53.003V336.887z"/>
</g>
<g>
</g>
<g>
</g>
<g>
</g>
<g>
</g>
<g>
</g>
<g>
</g>
<g>
</g>
<g>
</g>
<g>
</g>
<g>
</g>
<g>
</g>
<g>
</g>
<g>
</g>
<g>
</g>
<g>
</g>
</svg>
