<?xml version="1.0" encoding="utf-8"?>
<!-- Generator: Adobe Illustrator 21.0.2, SVG Export Plug-In . SVG Version: 6.00 Build 0)  -->
<svg version="1.1" id="Capa_1" xmlns="http://www.w3.org/2000/svg" xmlns:xlink="http://www.w3.org/1999/xlink" x="0px" y="0px"
	 width="228.5px" height="228.5px" viewBox="0 0 228.5 228.5" style="enable-background:new 0 0 228.5 228.5;" xml:space="preserve"
	>
<style type="text/css">
	.st0{fill:#263238;}
</style>
<path class="st0" d="M189.6,134.6c-0.2-0.2,1.2-2.8,1.3-3.2c8.6-20.9,9.5-44.6,2.1-65.9c-8.1-23.4-25.8-43.1-48.8-52.5
	c-9-3.7-18.6-5.9-28.4-6.2c-7.9-0.3-15.5,0.8-23.1,2.7c10.2,0.4,20.1,2,29.6,5.8c9.8,3.9,18.6,9.8,26,17.3
	c17.2,17.3,24.7,43.4,18.2,67.1c-1,3.7-2.4,7.2-4,10.6c-6.4-5.7-12.7-11.4-19.1-17.1c-7.7-6.9-15.3-13.7-23-20.6
	c-0.2-0.2-0.4-0.4-0.6-0.5c5.2-5.7,10.4-11.4,15.6-17.1c-0.6-0.5-1.2-1.1-1.8-1.6c-0.1-0.1-0.5-0.6-0.7-0.6c-1,0.4-2,0.7-3,1
	c-4,1.1-8.3,1.4-12.5,0.7c-7.3-1.1-14-5.1-18.8-10.8c-5.4,6-10.8,11.9-16.2,17.9c-7.8,8.6-15.6,17.2-23.5,25.8
	c-1,1.1-1.9,2.1-2.9,3.2c7.4,6.7,14.8,13.4,22.2,20.1c1.1,1,2.3,2.1,3.4,3.1c0.2,0.2,0.2,0,0.4-0.2c0.6-0.7,1.2-1.3,1.8-2
	c3.9-4.3,7.7-8.5,11.6-12.8c0,0,0.9-0.9,0.9-0.9c0.1,0.1,0.3,0.3,0.4,0.4c1,0.9,2,1.8,3.1,2.7c4,3.6,8,7.2,12,10.7
	c8.5,7.6,17,15.2,25.4,22.8c0.7,0.6,1.4,1.3,2.1,1.9c-9.5,6-20.3,9.2-31.4,10c-6.1,0.4-12.2,0-18.2-1.2c-5.4-1.1-10.5-2.9-15.7-5
	c-0.3-0.1-3.6-1.7-3.7-1.6l-13.4,15.4c-4.6-3.7-9.2-7.5-13.7-11.2L5.4,189.3c-1.8,2.2-5.4,6.5-5.4,6.5l6.2,5.1l25.6,20.9
	c5.8-7.1,11.5-14.2,17.3-21.2l14.5-17.8c0.1-0.1,2.2,1,2.4,1.1c1.3,0.6,2.5,1.1,3.8,1.6c22.6,8.6,48.4,7.7,70.5-2
	c5.4-2.4,10.6-5.3,15.5-8.6c2.5-1.7,4.9-3.5,7.3-5.5c0.6-0.5,6.4-5.8,6.3-5.8c2.3,2.1,4.6,4.1,6.9,6.2c8.8,7.9,17.6,15.7,26.3,23.6
	c0.9,0.8,1.8,1.6,2.6,2.4c6.7-7.4,13.3-14.9,20-22.3c1.1-1.2,2.1-2.3,3.2-3.5L189.6,134.6z"/>
</svg>
