<?xml version="1.0" encoding="utf-8"?>
<!-- Generator: Adobe Illustrator 21.0.2, SVG Export Plug-In . SVG Version: 6.00 Build 0)  -->
<svg version="1.1" id="Capa_1" xmlns="http://www.w3.org/2000/svg" xmlns:xlink="http://www.w3.org/1999/xlink" x="0px" y="0px"
	 width="512px" height="512px" viewBox="0 0 512 512" style="enable-background:new 0 0 512 512;" xml:space="preserve">
<style type="text/css">
	.st0{fill:#263238;}
</style>
<g>
	<g>
		<g>
			<path class="st0" d="M106,392c-41.4,0-75,33.6-75,75v30c0,8.3,6.7,15,15,15h75V392H106z"/>
		</g>
	</g>
	<g>
		<g>
			<path class="st0" d="M413.5,392H391v120h75c8.3,0,15-6.7,15-15v-37.5C481,422.3,450.7,392,413.5,392z"/>
		</g>
	</g>
	<g>
		<g>
			<path class="st0" d="M256,0c-74.4,0-135,60.6-135,135v152c0,20,13.2,36.8,31.3,42.6c3,24.3,13.8,46.1,30.4,62.4H151v120h210V392
				h-31.7c16.7-16.3,27.5-38.1,30.4-62.4C377.8,323.8,391,307,391,287V135C391,60.6,330.4,0,256,0z M255.6,470.5L221.3,422H288
				L255.6,470.5z M256,392c-36.2,0-66.5-25.9-73.5-60.1h147C322.5,366.1,292.2,392,256,392z"/>
		</g>
	</g>
</g>
</svg>
