<?xml version="1.0" encoding="utf-8"?>
<!-- Generator: Adobe Illustrator 21.0.2, SVG Export Plug-In . SVG Version: 6.00 Build 0)  -->
<svg version="1.1" id="Capa_1" xmlns="http://www.w3.org/2000/svg" xmlns:xlink="http://www.w3.org/1999/xlink" x="0px" y="0px"
	 width="512px" height="512px" viewBox="0 0 512 512" style="enable-background:new 0 0 512 512;" xml:space="preserve">
<style type="text/css">
	.st0{fill:#263238;}
</style>
<g>
	<g>
		<g>
			<path class="st0" d="M102.2,455.3L72.2,318l-25.4,16.3C17.9,351.5,0,383.2,0,416.8c0,28.3,12.5,55,34.2,73.1
				c21.8,18.1,50.2,25.6,78.1,20.5l15.2-2.8C114.6,492.9,105.4,475.2,102.2,455.3z"/>
		</g>
	</g>
	<g>
		<g>
			<path class="st0" d="M475.1,19.7C458.2,6.8,438,0,416.7,0c-33.6,0-65.2,17.9-82.3,46.4l-16.5,25.8l139.7,30.5
				c18.4,2.9,35.5,12.1,49.9,24.9l3-16.2C516.8,76.5,503.3,41.3,475.1,19.7z"/>
		</g>
	</g>
	<g>
		<g>
			<path class="st0" d="M252.1,478.4L123.9,264.7c-6-10-10-20.9-12.3-32.2c-11.8,16.7-18.3,38.5-14.1,59.4l34.3,157.1
				c3.7,22.9,17.5,42.5,37.9,53.7c20.4,11.2,44.3,12.4,65.7,3.2l28.2-12.5C259.4,488.7,255.4,483.9,252.1,478.4z"/>
		</g>
	</g>
	<g>
		<g>
			<path class="st0" d="M463,277.8L249.3,149.6c-28.6-17.2-65.1-12.7-88.7,10.9c-23.6,23.6-28.1,60.1-10.9,88.7L277.8,463
				c25.1,41.9,82.9,48.9,117.3,14.4l82.2-82.2C512,360.7,504.8,302.9,463,277.8z"/>
		</g>
	</g>
	<g>
		<g>
			<path class="st0" d="M502.7,169.7c-11.2-20.4-30.8-34.2-52.9-37.7L291.6,97.4c-20.3-4.1-41.9,2.5-58.5,14
				c10.9,2.3,21.6,6.4,31.6,12.4l213.7,128.2c5.4,3.3,10.4,7.1,15,11.2l12.4-27.9C515,214,513.9,190.1,502.7,169.7z"/>
		</g>
	</g>
</g>
</svg>
