<?xml version="1.0" encoding="utf-8"?>
<!-- Generator: Adobe Illustrator 21.0.2, SVG Export Plug-In . SVG Version: 6.00 Build 0)  -->
<svg version="1.1" id="Layer_1" xmlns="http://www.w3.org/2000/svg" xmlns:xlink="http://www.w3.org/1999/xlink" x="0px" y="0px"
	 width="100px" height="100px" viewBox="0 0 100 100" style="enable-background:new 0 0 100 100;" xml:space="preserve">
<style type="text/css">
	.st0{fill:#FFFFFF;}
	.st1{fill:#A4C439;}
</style>
<g>
	<path class="st0" d="M15.4,71.8c-4.5,0-8.1-3.6-8.1-8.1l0-24.7c0-4.5,3.6-8.1,8.1-8.1c2.2,0,4.2,0.8,5.7,2.4
		c1.5,1.5,2.4,3.6,2.4,5.7l0,24.7c0,2.2-0.8,4.2-2.4,5.7C19.6,71,17.6,71.8,15.4,71.8"/>
	<path class="st0" d="M15.4,33.1c-3.3,0-5.9,2.6-5.9,5.9l0,24.7c0,3.3,2.6,5.9,5.9,5.9c3.3,0,5.9-2.6,5.9-5.9l0-24.7
		C21.3,35.8,18.7,33.1,15.4,33.1"/>
	<path class="st0" d="M78.8,34.3l-2.2,0l-53.2,0l-2.2,0l0-2.2c0-8.9,4.9-17.2,12.8-22.1l-3.1-5.6c-0.4-0.7-0.5-1.5-0.3-2.3
		c0.2-0.8,0.8-1.4,1.5-1.8C32.5,0.1,33,0,33.6,0c1.1,0,2.1,0.6,2.6,1.6l3.2,5.9c3.3-1.2,6.9-1.9,10.5-1.9c3.7,0,7.3,0.6,10.6,1.9
		l3.2-5.9c0.5-1,1.5-1.6,2.6-1.6c0.5,0,1,0.1,1.4,0.4c0.7,0.4,1.2,1,1.5,1.8c0.2,0.8,0.1,1.6-0.3,2.3L66,10.1
		c7.9,4.9,12.8,13.2,12.8,22.1L78.8,34.3z"/>
	<path class="st0" d="M63,10.9l4.1-7.5c0.2-0.4,0.1-0.9-0.3-1.1c-0.4-0.2-0.9-0.1-1.1,0.3l-4.2,7.6C58,8.6,54.1,7.8,50,7.8
		c-4.1,0-8.1,0.9-11.5,2.4l-4.2-7.6c-0.2-0.4-0.7-0.5-1.1-0.3c-0.4,0.2-0.5,0.7-0.3,1.1l4.1,7.5C28.9,15.1,23.4,23,23.4,32.2l53.2,0
		C76.6,23,71.1,15.1,63,10.9 M37.9,22.5c-1.2,0-2.2-1-2.2-2.2c0-1.2,1-2.2,2.2-2.2c1.2,0,2.2,1,2.2,2.2
		C40.1,21.5,39.1,22.5,37.9,22.5 M62.1,22.5c-1.2,0-2.2-1-2.2-2.2c0-1.2,1-2.2,2.2-2.2c1.2,0,2.2,1,2.2,2.2
		C64.3,21.5,63.3,22.5,62.1,22.5"/>
	<path class="st0" d="M40.1,100c-4.5,0-8.1-3.6-8.1-8.1L32,81l-2.1,0c-2.3,0-4.4-0.9-6-2.5c-1.6-1.6-2.5-3.7-2.5-6l0-38.3l0-2.2
		l2.2,0l52.8,0l2.2,0l0,2.2l0,38.3c0,4.7-3.8,8.5-8.5,8.5L68,81l0,10.9c0,4.5-3.6,8.1-8.1,8.1c-2.2,0-4.2-0.8-5.7-2.4
		c-1.5-1.5-2.4-3.6-2.4-5.7l0-10.9l-3.6,0v10.9C48.2,96.4,44.6,100,40.1,100"/>
	<path class="st0" d="M23.6,72.5c0,3.5,2.8,6.3,6.3,6.3l4.3,0l0,13.1c0,3.3,2.6,5.9,5.9,5.9c3.3,0,5.9-2.7,5.9-5.9l0-13.1l8,0
		l0,13.1c0,3.3,2.7,5.9,5.9,5.9c3.3,0,5.9-2.6,5.9-5.9l0-13.1l4.3,0c3.5,0,6.3-2.8,6.3-6.3l0-38.3l-52.8,0L23.6,72.5z"/>
	<path class="st0" d="M84.6,71.8c-4.5,0-8.1-3.6-8.1-8.1l0-24.7c0-4.5,3.6-8.1,8.1-8.1c4.5,0,8.1,3.6,8.1,8.1l0,24.7
		C92.7,68.2,89,71.8,84.6,71.8"/>
	<path class="st0" d="M84.6,33.1c-3.3,0-5.9,2.6-5.9,5.9l0,24.7c0,3.3,2.6,5.9,5.9,5.9c3.3,0,5.9-2.6,5.9-5.9l0-24.7
		C90.5,35.7,87.8,33.1,84.6,33.1"/>
	<path class="st1" d="M15.4,33.1c-3.3,0-5.9,2.6-5.9,5.9l0,24.7c0,3.3,2.6,5.9,5.9,5.9c3.3,0,5.9-2.6,5.9-5.9l0-24.7
		C21.3,35.8,18.7,33.1,15.4,33.1 M63,10.9l4.1-7.5c0.2-0.4,0.1-0.9-0.3-1.1c-0.4-0.2-0.9-0.1-1.1,0.3l-4.2,7.6
		C58,8.6,54.1,7.8,50,7.8c-4.1,0-8.1,0.9-11.5,2.4l-4.2-7.6c-0.2-0.4-0.7-0.5-1.1-0.3c-0.4,0.2-0.5,0.7-0.3,1.1l4.1,7.5
		C28.9,15.1,23.4,23,23.4,32.2l53.2,0C76.6,23,71.1,15.1,63,10.9 M37.9,22.5c-1.2,0-2.2-1-2.2-2.2c0-1.2,1-2.2,2.2-2.2
		c1.2,0,2.2,1,2.2,2.2C40.1,21.5,39.1,22.5,37.9,22.5 M62.1,22.5c-1.2,0-2.2-1-2.2-2.2c0-1.2,1-2.2,2.2-2.2c1.2,0,2.2,1,2.2,2.2
		C64.3,21.5,63.3,22.5,62.1,22.5 M23.6,34.2l0,38.3c0,3.5,2.8,6.3,6.3,6.3l4.3,0l0,13.1c0,3.3,2.6,5.9,5.9,5.9
		c3.3,0,5.9-2.7,5.9-5.9l0-13.1l8,0l0,13.1c0,3.3,2.6,5.9,5.9,5.9c3.3,0,5.9-2.6,5.9-5.9l0-13.1l4.3,0c3.5,0,6.3-2.8,6.3-6.3l0-38.3
		L23.6,34.2z M90.5,39c0-3.3-2.6-5.9-5.9-5.9c-3.3,0-5.9,2.6-5.9,5.9l0,24.7c0,3.3,2.6,5.9,5.9,5.9c3.3,0,5.9-2.6,5.9-5.9L90.5,39z"
		/>
</g>
</svg>
