<?xml version="1.0" encoding="UTF-8"?>
<svg width="209px" height="80px" viewBox="0 0 209 80" version="1.1" xmlns="http://www.w3.org/2000/svg" xmlns:xlink="http://www.w3.org/1999/xlink">

                <path d="M101.572,65.892 C99.8733248,63.4093209 99.024,59.83469 99.024,55.168 L99.024,37.472 C99.024,32.7679765 99.8639916,29.212012 101.544,26.804 C103.224008,24.395988 106.210645,23.192 110.504,23.192 C114.42402,23.192 117.233325,24.2839891 118.932,26.468 C120.630675,28.6520109 121.48,31.9093117 121.48,36.24 L121.48,37.808 L117.448,37.808 L117.448,36.24 C117.448,32.8426497 116.962672,30.3880076 115.992,28.876 C115.021328,27.3639924 113.21068,26.608 110.56,26.608 C108.581323,26.608 107.060005,27.037329 105.996,27.896 C104.931995,28.754671 104.222668,29.921326 103.868,31.396 C103.513332,32.870674 103.336,34.7466553 103.336,37.024 L103.336,55.672 C103.336,59.2186844 103.849328,61.8506581 104.876,63.568 C105.902672,65.2853419 107.815986,66.144 110.616,66.144 C113.26668,66.144 115.114661,65.2760087 116.16,63.54 C117.205339,61.8039913 117.728,59.1440179 117.728,55.56 L117.728,50.24 L111.008,50.24 L111.008,47.048 L121.648,47.048 L121.648,69 L118.904,69 L118.4,63.848 C117.76533,65.6773425 116.794673,67.095995 115.488,68.104 C114.181327,69.112005 112.426678,69.616 110.224,69.616 C106.154646,69.616 103.270675,68.3746791 101.572,65.892 Z M130.748,65.92 C128.974658,63.4933212 128.088,60.0586889 128.088,55.616 L128.088,36.8 C128.088,32.3946446 128.983991,29.025345 130.776,26.692 C132.568009,24.358655 135.573312,23.192 139.792,23.192 C143.936021,23.192 146.903991,24.3679882 148.696,26.72 C150.488009,29.0720118 151.384,32.4319782 151.384,36.8 L151.384,55.672 C151.384,60.1146889 150.506675,63.539988 148.752,65.948 C146.997325,68.356012 144.010688,69.56 139.792,69.56 C135.535979,69.56 132.521342,68.3466788 130.748,65.92 Z M145.504,63.708 C146.549339,62.0839919 147.072,59.7040157 147.072,56.568 L147.072,36.016 C147.072,32.8799843 146.558672,30.5280078 145.532,28.96 C144.505328,27.3919922 142.592014,26.608 139.792,26.608 C136.954652,26.608 135.013339,27.3826589 133.968,28.932 C132.922661,30.4813411 132.4,32.8426508 132.4,36.016 L132.4,56.568 C132.4,59.7413492 132.922661,62.1306586 133.968,63.736 C135.013339,65.3413414 136.954652,66.144 139.792,66.144 C142.55468,66.144 144.458661,65.3320081 145.504,63.708 Z M158.44,23.64 L168.688,23.64 C172.757354,23.64 175.650658,24.6199902 177.368,26.58 C179.085342,28.5400098 179.944,31.4053145 179.944,35.176 C179.944,38.050681 179.477338,40.421324 178.544,42.288 C177.610662,44.154676 175.986678,45.3306642 173.672,45.816 L180.616,69 L176.472,69 L169.808,46.712 L162.696,46.712 L162.696,69 L158.44,69 L158.44,23.64 Z M168.464,43.576 C171.189347,43.576 173.093328,42.9040067 174.176,41.56 C175.258672,40.2159933 175.8,38.0880146 175.8,35.176 C175.8,32.2266519 175.286672,30.0986732 174.26,28.792 C173.233328,27.4853268 171.33868,26.832 168.576,26.832 L162.696,26.832 L162.696,43.576 L168.464,43.576 Z M194.224,23.64 L198.704,23.64 L208.336,69 L204.136,69 L201.896,56.848 L191.088,56.848 L188.792,69 L184.648,69 L194.224,23.64 Z M201.336,53.768 L196.52,29.296 L191.704,53.768 L201.336,53.768 Z" id="GORA" fill="#32364F"></path>

                    <path d="M34.1615325,51.5712322 C36.3588224,51.5712322 38.1382979,53.3381697 38.1382979,55.5199779 C38.1382979,57.7055236 36.3588224,59.4743299 34.1615325,59.4743299 C31.9661246,59.4743299 30.1810029,57.7055236 30.1810029,55.5199779 C30.1810029,53.3381697 31.9661246,51.5712322 34.1615325,51.5712322 M64.0512628,71.4485788 C65.5192595,71.4485788 66.7124773,72.6352582 66.7124773,74.0929116 C66.7124773,75.5496306 65.5192595,76.7297692 64.0512628,76.7297692 C62.5832661,76.7297692 61.3947534,75.5496306 61.3947534,74.0929116 C61.3947534,72.6352582 62.5832661,71.4485788 64.0512628,71.4485788 M34.1615325,48.9175555 C37.8324652,48.9175555 40.8117457,51.8758444 40.8117457,55.5199779 C40.8117457,59.4519045 37.382656,62.4924199 33.4604699,62.0887621 L24.2967828,78.0995896 C24.1612754,78.345335 23.903435,78.7321738 23.4263361,78.932134 C22.9172423,79.1554539 22.185126,79.1554539 21.8924677,79.1554539 L3.66013686,79.1554539 C0.865296988,79.1554539 -0.886888821,75.8374237 0.466303012,73.5051782 L30.2562848,22.2677269 C32.1731498,18.9777284 35.3340478,19.6290005 36.6599499,21.9248046 L63.8329453,69.0126157 C66.740708,68.8930134 69.1666667,71.1944239 69.1666667,74.0873052 C69.1666667,76.893288 66.8771564,79.1666667 64.0512628,79.1666667 C61.2244281,79.1666667 58.9349179,76.893288 58.9349179,74.0873052 C58.9349179,72.444642 59.7187904,70.9869886 60.9345928,70.0563329 C60.9345928,70.0563329 36.9366108,28.4365908 34.904,24.9559762 C34.1963503,23.7440682 32.9739608,23.8066725 32.2183189,25.0036302 C30.6345763,27.726452 13.0421414,57.9671537 3.80693654,73.8537069 C3.27055312,74.7778218 3.62531899,76.1532486 4.96815957,76.1532486 L20.3887121,76.1532486 C22.0477366,76.1532486 22.1653645,75.6084973 22.7196274,74.74979 C23.2513057,73.8537069 27.7644545,65.890808 30.5310637,61.0553232 C28.7130062,59.876119 27.5122602,57.8363386 27.5122602,55.5199779 C27.5122602,51.8758444 30.4868356,48.9175555 34.1615325,48.9175555" id="Fill-1" fill="#32364F"></path>
                    <path d="M40.9428232,11.6164629 C42.4079132,11.6164629 43.5948335,12.8037875 43.5948335,14.2691564 C43.5948335,15.7401614 42.4079132,16.9256073 40.9428232,16.9256073 C39.4767934,16.9256073 38.2832947,15.7401614 38.2832947,14.2691564 C38.2832947,12.8037875 39.4767934,11.6164629 40.9428232,11.6164629 M73.1982986,67.9317183 L44.7601393,17.6639278 C45.5579978,16.761223 46.0513733,15.5748377 46.0513733,14.2691564 C46.0513733,11.4530179 43.7583523,9.16666667 40.9428232,9.16666667 C38.119776,9.16666667 35.8333333,11.4530179 35.8333333,14.2691564 C35.8333333,17.090931 38.119776,19.3744642 40.9428232,19.3744642 C41.3478609,19.3744642 41.7463203,19.3256186 42.1288037,19.2391994 L70.3921672,69.188554 C70.8517111,69.9973249 71.8845104,70.1945861 72.5639588,69.8113358 C73.2199132,69.4459329 73.5319144,68.5169265 73.1982986,67.9317183" id="Fill-3" fill="#49A5B8"></path>
                    <path d="M74.8699557,53.1236615 C76.3421539,53.1236615 77.5387867,54.3073234 77.5387867,55.7635637 C77.5387867,57.2198039 76.3421539,58.3997319 74.8699557,58.3997319 C73.3977576,58.3997319 72.2048996,57.2198039 72.2048996,55.7635637 C72.2048996,54.5061562 73.2042956,53.1236615 74.8699557,53.1236615 M74.8699557,50.6891266 C77.7029934,50.6891266 80,52.9612347 80,55.7635637 C80,58.5621587 77.7029934,60.8333333 74.8699557,60.8333333 C72.0406929,60.8333333 69.7389677,58.5621587 69.7389677,55.7635637 C69.7389677,54.3950713 70.2882109,53.1554001 71.1790795,52.243383 L42.6542968,2.21219629 C42.5655874,2.05537042 42.4447917,1.66984015 42.5278388,1.25723875 C42.6146607,0.832502021 42.9062692,0.381627643 43.3177297,0.179994381 C43.5659272,0.0661089275 43.8735789,-0.0253728303 44.1472567,0.00636573873 C44.6804567,0.0717098515 45.1645834,0.425501548 45.3287901,0.713015644 L73.8809406,50.7815418 C74.1989731,50.7217986 74.5339925,50.6891266 74.8699557,50.6891266" id="Fill-5" fill="#FF6925"></path>
                    <path d="M8.75606149,17.5340006 C7.75845421,17.7003276 6.95926605,18.4510968 6.7314515,19.4361942 C6.50271834,20.4212916 6.89128913,21.4468221 7.71344246,22.034021 C8.5365144,22.6221388 9.63241264,22.6561394 10.4913102,22.1213197 C11.6606971,21.3907671 12.0180352,19.8487956 11.2877426,18.6762357 C10.8256832,17.9364937 10.0191462,17.5 9.16667885,17.5 C9.0298064,17.5 8.89385255,17.5110272 8.75606149,17.5340006 Z M4.16666667,28.259596 L4.68667459,29.3515152 L9.16666667,30.8333333 L7.55612784,27.1868687 C7.4808505,27.0161616 7.43429741,26.8414141 7.38477285,26.6666667 L4.16666667,28.259596 Z M6.78927681,33.2516028 C7.23150457,34.057658 8.3302854,34.3947978 9.24383486,34.0037498 L10.8333333,33.3234803 C10.4114713,33.0205678 10.0545858,32.6389323 9.81601552,32.1725841 L9.33984483,31.2415988 L5,30 L6.78927681,33.2516028 Z M9.45882933,23.8646309 C8.99283724,24.4651851 9.09519952,25.3368296 9.68792585,25.8087643 L13.5230992,28.8708981 C13.871131,29.1489142 14.3312738,29.2369691 14.756321,29.1093389 L19.0243405,27.8201756 C19.1442506,27.7825792 19.2563617,27.7321207 19.358724,27.6658322 C19.8676107,27.3452728 20.1220541,26.7061328 19.9426764,26.0956848 C19.728203,25.3625535 18.9668227,24.9440454 18.2444374,25.163688 L14.6549336,26.2480494 L11.376416,23.6321264 C11.126847,23.431282 10.8285341,23.3333333 10.5311961,23.3333333 C10.1275962,23.3333333 9.72692101,23.5153794 9.45882933,23.8646309 Z M10.8333333,31.0335512 C10.8333333,31.0335512 11.1555176,31.7570902 11.2622987,31.9976483 C11.3534308,32.2018429 11.7290056,32.821886 11.9747861,33.0382018 C12.3641688,33.3775938 13.534158,34.3967023 13.534158,34.3967023 L15.6265146,36.2195358 L16.9649601,40.5934038 C17.2107406,41.3980613 18.0530224,41.847476 18.8474367,41.597594 C18.9735488,41.5584333 19.0913762,41.5024896 19.1990778,41.4344247 C19.7642811,41.0773172 20.0441211,40.3677641 19.8388437,39.6917772 L18.3715245,34.9011283 C18.2886771,34.627004 18.1303466,34.3827164 17.9158639,34.1971696 L16.5415179,32.9981088 L18.7268477,33.0680385 L20.6802049,35.4083516 C21.1690044,35.9929637 21.9993193,36.1113779 22.6243568,35.7169745 C22.6851115,35.6796787 22.7431047,35.6358561 22.8001773,35.5873716 C23.4353406,35.0437849 23.5135853,34.0843498 22.9778389,33.4409967 L20.5927549,30.5813393 C20.3165969,30.2522036 19.9161679,30.0564005 19.4899642,30.0424146 L16.9069669,29.9631609 C16.9069669,29.9631609 14.2383607,29.8046537 13.4190922,29.2396219 L12.282242,28.3333333 L10.8333333,31.0335512 Z M5.85344109,22.6738229 L2.65293923,24.2089534 C2.23463936,24.4111369 1.91514322,24.7679312 1.76185894,25.2024884 C1.61134486,25.6352159 1.63997024,26.1127714 1.84311807,26.5281166 C2.26511154,27.3899122 3.31132291,27.7485362 4.18116502,27.3304465 L7.02154116,25.9673091 L7.38074348,25.7944011 C7.55711274,25.7102342 7.71132041,25.5922176 7.8479835,25.4568187 C7.83690271,25.8300805 7.90154066,26.2106611 8.06775253,26.5747743 L9.62368029,30 L10.8333333,27.7942791 L9.03085797,26.3890583 C8.54699675,26.0112222 8.27551737,25.4714565 8.22103681,24.9088192 C8.2358112,24.8731398 8.25704938,24.8392901 8.27090037,24.8026958 C8.3632403,24.5392169 8.38170828,24.26293 8.34292551,23.9921322 C8.31707033,23.8146499 8.27182377,23.640827 8.19148803,23.4761527 C8.12962028,23.3508173 8.05205474,23.2392047 7.96710201,23.1358258 C7.63006128,22.7296292 7.12957888,22.5 6.61247529,22.5 C6.35761709,22.5 6.09814189,22.5558063 5.85344109,22.6738229 Z" id="Clip-24" fill="#32364F"></path>
</svg>