<?xml version="1.0" encoding="utf-8"?>
<!-- Generator: Adobe Illustrator 21.0.2, SVG Export Plug-In . SVG Version: 6.00 Build 0)  -->
<svg version="1.1" id="Layer_1" xmlns="http://www.w3.org/2000/svg" xmlns:xlink="http://www.w3.org/1999/xlink" x="0px" y="0px"
	 width="300px" height="600px" viewBox="0 0 300 600" style="enable-background:new 0 0 300 600;" xml:space="preserve">
<style type="text/css">
	.st0{fill:#A6A6A6;}
	.st1{fill:#FAFAFA;}
</style>
<g>
	<path class="st0" d="M283.8,12.1C271.9,0.4,254.7,0,248.8,0H51c-5.8,0-23,0.4-34.9,12.1C3.7,24.2,1.7,36.4,1.7,55.9v488.2
		c0,19.5,2,31.7,14.3,43.8C28,599.6,45.2,600,51,600h197.8c5.8,0,23-0.4,34.9-12.1c12.3-12.1,14.3-24.3,14.3-43.8V55.9
		C298.1,36.4,296.1,24.2,283.8,12.1z M292.7,535.2c0,18.8-1.9,30.5-13.8,42.2c-11.5,11.3-28.1,11.7-33.7,11.7H54.6
		c-5.6,0-22.2-0.4-33.7-11.7C9.1,565.7,7.1,554,7.1,535.2V64.8c0-18.8,2-30.5,13.9-42.2c11.4-11.3,28-11.7,33.6-11.7h190.6
		c5.6,0,22.2,0.4,33.7,11.7c11.9,11.7,13.8,23.4,13.8,42.2V535.2z"/>
	<path class="st0" d="M1.4,80.9c-0.1,0-0.2,0-0.3,0.1l0,0H1c-0.1,0-0.1,0.1-0.2,0.1s-0.2,0.1-0.2,0.2c-0.1,0-0.1,0.1-0.2,0.1
		c-0.1,0.1-0.1,0.2-0.2,0.3c0,0.1-0.1,0.1-0.1,0.2C0,81.9,0,82.1,0,82.3v20.2c0,0.2,0,0.3,0.1,0.5c0,0.1,0.1,0.1,0.1,0.2
		c0.1,0.1,0.1,0.2,0.2,0.3c0,0.1,0.1,0.1,0.2,0.1c0.1,0.1,0.1,0.1,0.2,0.2c0.1,0,0.1,0.1,0.2,0.1h0.1l0,0c0.1,0,0.2,0.1,0.3,0.1h0.7
		V81L1.4,80.9L1.4,80.9z"/>
	<path class="st0" d="M1.4,123.8c-0.1,0-0.2,0-0.3,0.1l0,0H1c-0.1,0-0.1,0.1-0.2,0.1s-0.2,0.1-0.2,0.2c-0.1,0-0.1,0.1-0.2,0.1
		c-0.1,0.1-0.1,0.2-0.2,0.3c0,0.1-0.1,0.1-0.1,0.2C0,124.8,0,125,0,125.2v40.7c0,0.2,0,0.3,0.1,0.5c0,0.1,0.1,0.1,0.1,0.2
		c0.1,0.1,0.1,0.2,0.2,0.3c0,0.1,0.1,0.1,0.2,0.1c0.1,0.1,0.1,0.1,0.2,0.1s0.1,0.1,0.2,0.1h0.1l0,0c0.1,0,0.2,0.1,0.3,0.1h0.7v-43.5
		L1.4,123.8L1.4,123.8z"/>
	<path class="st0" d="M1.9,178.8c-0.1,0-0.2,0-0.3,0.1l0,0H1.5c-0.1,0-0.1,0.1-0.2,0.1s-0.2,0.1-0.2,0.2c-0.1,0-0.1,0.1-0.2,0.1
		c-0.1,0.1-0.1,0.2-0.2,0.3c0,0.1-0.1,0.1-0.1,0.2c-0.1,0.2-0.1,0.3-0.1,0.5V221c0,0.2,0,0.3,0.1,0.5c0,0.1,0.1,0.1,0.1,0.2
		c0.1,0.1,0.1,0.2,0.2,0.3c0,0.1,0.1,0.1,0.2,0.1c0.1,0.1,0.1,0.1,0.2,0.2c0.1,0,0.1,0.1,0.2,0.1h0.1l0,0c0.1,0,0.2,0.1,0.3,0.1h0.4
		V179H1.9V178.8z"/>
	<path class="st0" d="M299.9,206.1c0.1-0.2,0.1-0.4,0.1-0.6v-64.7c0-0.2,0-0.4-0.1-0.6v-0.1c-0.1-0.2-0.2-0.3-0.3-0.5c0,0,0,0,0-0.1
		c-0.3-0.3-0.6-0.5-1-0.6l0,0l0,0c-0.1,0-0.3-0.1-0.5-0.1h-0.6v68.5h0.6c0.6,0,1.1-0.3,1.5-0.7c0,0,0,0,0-0.1
		C299.7,206.5,299.8,206.4,299.9,206.1L299.9,206.1z"/>
	<path class="st1" d="M282.1,13.8c-5.3-5.2-15.4-11.4-33.2-11.4H51c-17.9,0-27.9,6.2-33.2,11.4C6.2,25.2,4.2,36.4,4.2,55.9v488.2
		c0,19.4,2,30.7,13.6,42c5.3,5.2,15.4,11.4,33.2,11.4h197.9c17.8,0,27.9-6.2,33.2-11.4c11.6-11.4,13.6-22.6,13.6-42V55.9
		C295.7,36.4,293.7,25.2,282.1,13.8z M280.2,544.1c0,16.4-1.4,23.5-9,31c-3.2,3.2-9.7,7-22.4,7H51c-12.6,0-19.2-3.8-22.4-7
		c-7.6-7.5-9-14.6-9-31V55.9c0-16.4,1.4-23.5,9-31c3.2-3.2,9.7-7,22.4-7h23.2c1.1,0.1,2.8,0.8,3,3.6c0.2,3.8,0.7,8.8,4.4,12.6
		c2.9,3,6.6,4.4,10.5,4.4c8.4,0,107.8,0,116.2,0c3.9,0,7.6-1.4,10.5-4.4c3.7-3.8,4.2-8.8,4.4-12.6c0.2-2.8,1.8-3.5,3-3.6h22.6
		c12.6,0,19.2,3.8,22.4,7c7.6,7.5,9,14.6,9,31L280.2,544.1L280.2,544.1z"/>
	<g>
		<g>
			<g>
				<ellipse class="st0" cx="182.2" cy="23.6" rx="4.6" ry="4.6"/>
			</g>
		</g>
	</g>
	<g>
		<g>
			<g>
				<path id="SVGID_1_" class="st0" d="M168.2,23.6c0,1.3-1.1,2.4-2.4,2.4h-31.9c-1.3,0-2.4-1.1-2.4-2.4l0,0c0-1.3,1.1-2.4,2.4-2.4
					h31.9C167.1,21.2,168.2,22.3,168.2,23.6L168.2,23.6z"/>
			</g>
		</g>
	</g>
</g>
</svg>
