<?xml version="1.0" encoding="utf-8"?>
<!-- Generator: Adobe Illustrator 21.0.2, SVG Export Plug-In . SVG Version: 6.00 Build 0)  -->
<svg version="1.1" id="Слой_1" xmlns="http://www.w3.org/2000/svg" xmlns:xlink="http://www.w3.org/1999/xlink" x="0px" y="0px"
	 width="94px" height="94px" viewBox="0 0 94 94" style="enable-background:new 0 0 94 94;" xml:space="preserve">
<style type="text/css">
	.st0{fill:#20201E;}
	.st1{fill:#4470B4;}
	.st2{fill:#C8502B;}
	.st3{clip-path:url(#SVGID_2_);}
	.st4{clip-path:url(#SVGID_4_);fill:#20201E;}
	.st5{clip-path:url(#SVGID_6_);}
	.st6{clip-path:url(#SVGID_8_);fill:#20201E;}
	.st7{clip-path:url(#SVGID_10_);}
	.st8{clip-path:url(#SVGID_12_);fill:#20201E;}
	.st9{clip-path:url(#SVGID_14_);}
	.st10{clip-path:url(#SVGID_16_);fill:#20201E;}
	.st11{clip-path:url(#SVGID_18_);}
	.st12{clip-path:url(#SVGID_20_);fill:#20201E;}
	.st13{clip-path:url(#SVGID_22_);}
	.st14{clip-path:url(#SVGID_24_);fill:#20201E;}
</style>
<g>
	<path class="st0" d="M75.1,80.9C74,79.8,72.5,79.1,71,79L42.5,29.3c-1-1.7-2.7-2.8-4.6-2.8c0,0,0,0,0,0c-1.1,0-3.2,0.4-4.8,3.2
		L1.5,84.5c-1,1.7-0.9,3.8,0.1,5.5c1,1.7,2.7,2.7,4.6,2.7h19.4c0.7,0,1.5,0,2.2-0.4c0.7-0.3,1.3-0.8,1.6-1.5l9.3-16.3
		c2.1,0,4.1-0.8,5.6-2.2c1.8-1.6,2.8-3.9,2.8-6.4c0-4.7-3.8-8.6-8.6-8.6c-4.7,0-8.6,3.8-8.6,8.6c0,2.4,1,4.7,2.8,6.3
		c-1.2,2.1-2.6,4.7-3.9,7c-1.8,3.2-3.4,6-3.7,6.5l-0.2,0.3c-0.1,0.2-0.2,0.4-0.3,0.4c0,0-0.2,0.1-0.8,0.1l-16.4,0
		c0-0.1,0-0.1,0.1-0.2c8.7-15.2,24.6-42.5,29.1-50.4l1.1-1.9c0.1-0.1,0.1-0.2,0.2-0.2c0,0,0.1,0.1,0.1,0.1
		c2,3.4,23.2,40.5,27.1,47.2c-1.1,1.3-1.7,2.9-1.7,4.6c0,3.8,3.1,6.9,6.9,6.9c3.8,0,6.9-3.1,6.9-6.9C77.3,84,76.5,82.2,75.1,80.9z
		 M71.7,85.9c0,0.7-0.6,1.3-1.3,1.3c-0.7,0-1.3-0.6-1.3-1.3c0-0.7,0.6-1.3,1.3-1.3C71.1,84.6,71.7,85.2,71.7,85.9z M38.6,63.3
		c1.5,0,2.7,1.2,2.7,2.7c0,1.5-1.2,2.7-2.7,2.7c-1.5,0-2.7-1.2-2.7-2.7C35.8,64.5,37.1,63.3,38.6,63.3z"/>
	<path class="st1" d="M83.4,76.5L53.6,23.9c0.7-1.1,1.1-2.4,1.1-3.7c0-3.8-3.1-6.9-6.9-6.9c-3.8,0-6.9,3.1-6.9,6.9
		c0,4,3.4,7.2,7.4,6.9l29.6,52.3c0.6,1,1.7,1.6,2.8,1.6c0.5,0,1-0.1,1.5-0.4c0.7-0.4,1.2-1.1,1.5-1.9C83.8,77.9,83.7,77.1,83.4,76.5
		z M47.8,18.8c0.7,0,1.3,0.6,1.3,1.3c0,0.7-0.6,1.3-1.3,1.3c-0.7,0-1.3-0.6-1.3-1.3C46.4,19.4,47,18.8,47.8,18.8z"/>
	<path class="st2" d="M85.6,55.6L55.9,2.8c-0.4-0.8-1.4-1.4-2.4-1.5c-0.7-0.1-1.3,0.1-1.7,0.3c-0.8,0.4-1.4,1.2-1.6,2.2
		c-0.2,0.8,0,1.6,0.3,2.1l29.7,52.7c-0.8,1.1-1.2,2.5-1.2,3.9c0,3.8,3.1,6.9,6.9,6.9c3.8,0,6.9-3.1,6.9-6.9
		C92.8,58.7,89.6,55.5,85.6,55.6z M85.9,63.9c-0.7,0-1.3-0.6-1.3-1.3c0-0.5,0.4-1.3,1.3-1.3c0.7,0,1.3,0.6,1.3,1.3
		C87.2,63.3,86.6,63.9,85.9,63.9z"/>
	<g>
		<g>
			<defs>
				<path id="SVGID_1_" d="M5.8,35.6l0.5,1.1l4.5,1.5l-1.6-3.6c-0.1-0.2-0.1-0.3-0.2-0.5L5.8,35.6z"/>
			</defs>
			<clipPath id="SVGID_2_">
				<use xlink:href="#SVGID_1_"  style="overflow:visible;"/>
			</clipPath>
			<g class="st3">
				<defs>
					<rect id="SVGID_3_" x="-47.2" y="-45.9" width="190" height="190"/>
				</defs>
				<clipPath id="SVGID_4_">
					<use xlink:href="#SVGID_3_"  style="overflow:visible;"/>
				</clipPath>
				<rect x="3.5" y="31.6" class="st4" width="9.8" height="8.9"/>
			</g>
		</g>
		<g>
			<defs>
				<path id="SVGID_5_" d="M11.9,40.4l-0.5-1.1l-4.5-1.5l1.8,3.8c0.5,0.9,1.6,1.3,2.5,0.9l1.6-0.8C12.5,41.4,12.1,40.9,11.9,40.4z"
					/>
			</defs>
			<clipPath id="SVGID_6_">
				<use xlink:href="#SVGID_5_"  style="overflow:visible;"/>
			</clipPath>
			<g class="st5">
				<defs>
					<rect id="SVGID_7_" x="-47.2" y="-45.9" width="190" height="190"/>
				</defs>
				<clipPath id="SVGID_8_">
					<use xlink:href="#SVGID_7_"  style="overflow:visible;"/>
				</clipPath>
				<rect x="4.6" y="35.5" class="st6" width="10.8" height="9.6"/>
			</g>
		</g>
		<g>
			<defs>
				<path id="SVGID_9_" d="M13.5,31c-0.6-0.5-1.5-0.4-2,0.2c-0.5,0.6-0.4,1.5,0.2,2l3.9,3.1c0.4,0.3,0.8,0.4,1.3,0.2l4.4-1.3
					c0.1,0,0.2-0.1,0.3-0.2c0.5-0.3,0.8-1,0.6-1.6c-0.2-0.7-1-1.2-1.7-0.9l-3.7,1.1L13.5,31z"/>
			</defs>
			<clipPath id="SVGID_10_">
				<use xlink:href="#SVGID_9_"  style="overflow:visible;"/>
			</clipPath>
			<g class="st7">
				<defs>
					<rect id="SVGID_11_" x="-47.2" y="-45.9" width="190" height="190"/>
				</defs>
				<clipPath id="SVGID_12_">
					<use xlink:href="#SVGID_11_"  style="overflow:visible;"/>
				</clipPath>
				<rect x="8.8" y="28.3" class="st8" width="15.9" height="10.6"/>
			</g>
		</g>
		<g>
			<defs>
				<path id="SVGID_13_" d="M25.5,41.5l-2.6-3.1c-0.3-0.4-0.7-0.6-1.2-0.6l-2.8-0.1c0,0-2.9-0.2-3.8-0.8l-1.2-1L12.3,39
					c0,0,0.3,0.8,0.5,1c0.1,0.2,0.5,0.9,0.8,1.1c0.4,0.4,1.7,1.5,1.7,1.5l2.3,2l1.5,4.7c0.3,0.9,1.2,1.3,2,1.1
					c0.1,0,0.3-0.1,0.4-0.2c0.6-0.4,0.9-1.1,0.7-1.9l-1.6-5.1c-0.1-0.3-0.3-0.6-0.5-0.8l-1.5-1.3l2.4,0.1l2.1,2.5
					c0.5,0.6,1.4,0.8,2.1,0.3c0.1,0,0.1-0.1,0.2-0.1C26,43.3,26.1,42.2,25.5,41.5z"/>
			</defs>
			<clipPath id="SVGID_14_">
				<use xlink:href="#SVGID_13_"  style="overflow:visible;"/>
			</clipPath>
			<g class="st9">
				<defs>
					<rect id="SVGID_15_" x="-47.2" y="-45.9" width="190" height="190"/>
				</defs>
				<clipPath id="SVGID_16_">
					<use xlink:href="#SVGID_15_"  style="overflow:visible;"/>
				</clipPath>
				<rect x="9.9" y="33.7" class="st10" width="18.3" height="19"/>
			</g>
		</g>
		<g>
			<defs>
				<path id="SVGID_17_" d="M5.9,35L9,33.5l0.4-0.2c0.2-0.1,0.4-0.2,0.5-0.4c0,0.4,0.1,0.8,0.2,1.2l1.7,3.7l1.3-2.4l-2-1.5
					c-0.5-0.4-0.8-1-0.9-1.6c0,0,0-0.1,0.1-0.1c0.1-0.3,0.1-0.6,0.1-0.9c0-0.2-0.1-0.4-0.2-0.6c-0.1-0.1-0.2-0.3-0.2-0.4
					c-0.5-0.7-1.5-0.9-2.3-0.5l-3.5,1.7c-0.5,0.2-0.8,0.6-1,1.1c-0.2,0.5-0.1,1,0.1,1.4C3.8,35,5,35.4,5.9,35z"/>
			</defs>
			<clipPath id="SVGID_18_">
				<use xlink:href="#SVGID_17_"  style="overflow:visible;"/>
			</clipPath>
			<g class="st11">
				<defs>
					<rect id="SVGID_19_" x="-47.2" y="-45.9" width="190" height="190"/>
				</defs>
				<clipPath id="SVGID_20_">
					<use xlink:href="#SVGID_19_"  style="overflow:visible;"/>
				</clipPath>
				<rect x="0.8" y="27.3" class="st12" width="14.7" height="12.9"/>
			</g>
		</g>
		<g>
			<defs>
				<path id="SVGID_21_" d="M13.5,25.8c0.8,1.3,0.4,3-0.9,3.7c-0.9,0.6-2.1,0.5-3-0.1c-0.9-0.6-1.3-1.8-1.1-2.8
					c0.2-1.1,1.1-1.9,2.2-2.1C11.8,24.4,12.9,24.9,13.5,25.8z"/>
			</defs>
			<clipPath id="SVGID_22_">
				<use xlink:href="#SVGID_21_"  style="overflow:visible;"/>
			</clipPath>
			<g class="st13">
				<defs>
					<rect id="SVGID_23_" x="-47.2" y="-45.9" width="190" height="190"/>
				</defs>
				<clipPath id="SVGID_24_">
					<use xlink:href="#SVGID_23_"  style="overflow:visible;"/>
				</clipPath>
				<rect x="6.1" y="22.2" class="st14" width="10.2" height="10.2"/>
			</g>
		</g>
	</g>
</g>
</svg>
