<?xml version="1.0" encoding="utf-8"?>
<!-- Generator: Adobe Illustrator 21.0.2, SVG Export Plug-In . SVG Version: 6.00 Build 0)  -->
<svg version="1.1" id="Слой_1" xmlns="http://www.w3.org/2000/svg" xmlns:xlink="http://www.w3.org/1999/xlink" x="0px" y="0px"
	 width="94px" height="94px" viewBox="0 0 94 94" style="enable-background:new 0 0 94 94;" xml:space="preserve">
<style type="text/css">
	.st0{fill:#263238;}
	.st1{fill:#43A047;}
	.st2{fill:#E53061;}
	.st3{clip-path:url(#SVGID_2_);}
	.st4{clip-path:url(#SVGID_4_);fill:#263238;}
	.st5{clip-path:url(#SVGID_6_);}
	.st6{clip-path:url(#SVGID_8_);fill:#263238;}
	.st7{clip-path:url(#SVGID_10_);}
	.st8{clip-path:url(#SVGID_12_);fill:#263238;}
	.st9{clip-path:url(#SVGID_14_);}
	.st10{clip-path:url(#SVGID_16_);fill:#263238;}
	.st11{clip-path:url(#SVGID_18_);}
	.st12{clip-path:url(#SVGID_20_);fill:#263238;}
	.st13{clip-path:url(#SVGID_22_);}
	.st14{clip-path:url(#SVGID_24_);fill:#263238;}
</style>
<g>
	<path class="st0" d="M75.1,80.9C74,79.8,72.5,79.1,71,79L42.5,29.3c-1-1.7-2.7-2.8-4.6-2.8l0,0c-1.1,0-3.2,0.4-4.8,3.2L1.5,84.5
		c-1,1.7-0.9,3.8,0.1,5.5s2.7,2.7,4.6,2.7h19.4c0.7,0,1.5,0,2.2-0.4c0.7-0.3,1.3-0.8,1.6-1.5l9.3-16.3c2.1,0,4.1-0.8,5.6-2.2
		c1.8-1.6,2.8-3.9,2.8-6.4c0-4.7-3.8-8.6-8.6-8.6c-4.7,0-8.6,3.8-8.6,8.6c0,2.4,1,4.7,2.8,6.3c-1.2,2.1-2.6,4.7-3.9,7
		c-1.8,3.2-3.4,6-3.7,6.5L24.9,86c-0.1,0.2-0.2,0.4-0.3,0.4c0,0-0.2,0.1-0.8,0.1H7.4c0-0.1,0-0.1,0.1-0.2
		c8.7-15.2,24.6-42.5,29.1-50.4l1.1-1.9c0.1-0.1,0.1-0.2,0.2-0.2l0.1,0.1c2,3.4,23.2,40.5,27.1,47.2c-1.1,1.3-1.7,2.9-1.7,4.6
		c0,3.8,3.1,6.9,6.9,6.9c3.8,0,6.9-3.1,6.9-6.9C77.3,84,76.5,82.2,75.1,80.9z M71.7,85.9c0,0.7-0.6,1.3-1.3,1.3
		c-0.7,0-1.3-0.6-1.3-1.3c0-0.7,0.6-1.3,1.3-1.3S71.7,85.2,71.7,85.9z M38.6,63.3c1.5,0,2.7,1.2,2.7,2.7s-1.2,2.7-2.7,2.7
		s-2.7-1.2-2.7-2.7C35.8,64.5,37.1,63.3,38.6,63.3z"/>
	<path class="st1" d="M83.4,76.5L53.6,23.9c0.7-1.1,1.1-2.4,1.1-3.7c0-3.8-3.1-6.9-6.9-6.9c-3.8,0-6.9,3.1-6.9,6.9
		c0,4,3.4,7.2,7.4,6.9l29.6,52.3c0.6,1,1.7,1.6,2.8,1.6c0.5,0,1-0.1,1.5-0.4c0.7-0.4,1.2-1.1,1.5-1.9C83.8,77.9,83.7,77.1,83.4,76.5
		z M47.8,18.8c0.7,0,1.3,0.6,1.3,1.3c0,0.7-0.6,1.3-1.3,1.3s-1.3-0.6-1.3-1.3C46.4,19.4,47,18.8,47.8,18.8z"/>
	<path class="st2" d="M85.6,55.6L55.9,2.8c-0.4-0.8-1.4-1.4-2.4-1.5c-0.7-0.1-1.3,0.1-1.7,0.3C51,2,50.4,2.8,50.2,3.8
		c-0.2,0.8,0,1.6,0.3,2.1l29.7,52.7c-0.8,1.1-1.2,2.5-1.2,3.9c0,3.8,3.1,6.9,6.9,6.9s6.9-3.1,6.9-6.9C92.8,58.7,89.6,55.5,85.6,55.6
		z M85.9,63.9c-0.7,0-1.3-0.6-1.3-1.3c0-0.5,0.4-1.3,1.3-1.3c0.7,0,1.3,0.6,1.3,1.3C87.2,63.3,86.6,63.9,85.9,63.9z"/>
	<g>
		<g>
			<defs>
				<path id="SVGID_1_" d="M5,24l0.7,1.4l5.9,1.9l-2.1-4.7c-0.1-0.2-0.2-0.4-0.2-0.7L5,24z"/>
			</defs>
			<use xlink:href="#SVGID_1_"  style="overflow:visible;fill-rule:evenodd;clip-rule:evenodd;fill:#263238;"/>
			<clipPath id="SVGID_2_">
				<use xlink:href="#SVGID_1_"  style="overflow:visible;"/>
			</clipPath>
			<g class="st3">
				<defs>
					<rect id="SVGID_3_" x="-63.6" y="-81.5" width="245.8" height="245.8"/>
				</defs>
				<use xlink:href="#SVGID_3_"  style="overflow:visible;fill:#263238;"/>
				<clipPath id="SVGID_4_">
					<use xlink:href="#SVGID_3_"  style="overflow:visible;"/>
				</clipPath>
				<rect x="1.9" y="18.8" class="st4" width="12.7" height="11.5"/>
			</g>
		</g>
		<g>
			<defs>
				<path id="SVGID_5_" d="M12.8,30.1l-0.6-1.4l-5.8-1.9l2.4,4.9c0.6,1.2,2.1,1.7,3.3,1.1l2.1-1C13.6,31.4,13.1,30.9,12.8,30.1z"/>
			</defs>
			<use xlink:href="#SVGID_5_"  style="overflow:visible;fill-rule:evenodd;clip-rule:evenodd;fill:#263238;"/>
			<clipPath id="SVGID_6_">
				<use xlink:href="#SVGID_5_"  style="overflow:visible;"/>
			</clipPath>
			<g class="st5">
				<defs>
					<rect id="SVGID_7_" x="-63.6" y="-81.5" width="245.8" height="245.8"/>
				</defs>
				<use xlink:href="#SVGID_7_"  style="overflow:visible;fill:#263238;"/>
				<clipPath id="SVGID_8_">
					<use xlink:href="#SVGID_7_"  style="overflow:visible;"/>
				</clipPath>
				<rect x="3.3" y="23.8" class="st6" width="13.9" height="12.4"/>
			</g>
		</g>
		<g>
			<defs>
				<path id="SVGID_9_" d="M14.8,18c-0.8-0.6-1.9-0.5-2.5,0.3c-0.6,0.8-0.5,1.9,0.3,2.5l5.1,4c0.5,0.4,1.1,0.5,1.6,0.3l5.7-1.7
					c0.2,0,0.3-0.1,0.4-0.2c0.7-0.4,1-1.3,0.8-2.1c-0.3-1-1.3-1.5-2.3-1.2l-4.8,1.4L14.8,18z"/>
			</defs>
			<use xlink:href="#SVGID_9_"  style="overflow:visible;fill-rule:evenodd;clip-rule:evenodd;fill:#263238;"/>
			<clipPath id="SVGID_10_">
				<use xlink:href="#SVGID_9_"  style="overflow:visible;"/>
			</clipPath>
			<g class="st7">
				<defs>
					<rect id="SVGID_11_" x="-63.6" y="-81.5" width="245.8" height="245.8"/>
				</defs>
				<use xlink:href="#SVGID_11_"  style="overflow:visible;fill:#263238;"/>
				<clipPath id="SVGID_12_">
					<use xlink:href="#SVGID_11_"  style="overflow:visible;"/>
				</clipPath>
				<rect x="8.8" y="14.6" class="st8" width="20.5" height="13.8"/>
			</g>
		</g>
		<g>
			<defs>
				<path id="SVGID_13_" d="M30.4,31.7l-3.4-4c-0.4-0.5-1-0.7-1.6-0.7l-3.6-0.1c0,0-3.8-0.2-4.9-1l-1.6-1.3l-2,3.7
					c0,0,0.5,1,0.6,1.3c0.1,0.3,0.7,1.1,1,1.4c0.5,0.5,2.2,1.9,2.2,1.9l2.9,2.5l1.9,6.1c0.3,1.1,1.5,1.7,2.6,1.4
					c0.2-0.1,0.3-0.1,0.5-0.2c0.8-0.5,1.2-1.5,0.9-2.4l-2.1-6.6c-0.1-0.4-0.3-0.7-0.6-1L21.3,31l3.1,0.1l2.7,3.2
					c0.7,0.8,1.9,1,2.7,0.4c0.1-0.1,0.2-0.1,0.2-0.2C31,33.9,31.1,32.5,30.4,31.7z"/>
			</defs>
			<use xlink:href="#SVGID_13_"  style="overflow:visible;fill-rule:evenodd;clip-rule:evenodd;fill:#263238;"/>
			<clipPath id="SVGID_14_">
				<use xlink:href="#SVGID_13_"  style="overflow:visible;"/>
			</clipPath>
			<g class="st9">
				<defs>
					<rect id="SVGID_15_" x="-63.6" y="-81.5" width="245.8" height="245.8"/>
				</defs>
				<use xlink:href="#SVGID_15_"  style="overflow:visible;fill:#263238;"/>
				<clipPath id="SVGID_16_">
					<use xlink:href="#SVGID_15_"  style="overflow:visible;"/>
				</clipPath>
				<rect x="10.2" y="21.5" class="st10" width="23.7" height="24.6"/>
			</g>
		</g>
		<g>
			<defs>
				<path id="SVGID_17_" d="M5.1,23.2l4-1.9L9.5,21c0.2-0.1,0.5-0.3,0.7-0.5c0,0.5,0.1,1.1,0.3,1.6l2.2,4.8l1.7-3.1l-2.5-2
					c-0.7-0.5-1.1-1.3-1.1-2.1c0,0,0.1-0.1,0.1-0.2c0.1-0.4,0.2-0.8,0.1-1.1c0-0.2-0.1-0.5-0.2-0.7c-0.1-0.2-0.2-0.3-0.3-0.5
					c-0.7-0.9-1.9-1.2-3-0.7l-4.5,2.2c-0.6,0.3-1,0.8-1.2,1.4c-0.2,0.6-0.2,1.3,0.1,1.9C2.4,23.2,3.8,23.7,5.1,23.2z"/>
			</defs>
			<use xlink:href="#SVGID_17_"  style="overflow:visible;fill-rule:evenodd;clip-rule:evenodd;fill:#263238;"/>
			<clipPath id="SVGID_18_">
				<use xlink:href="#SVGID_17_"  style="overflow:visible;"/>
			</clipPath>
			<g class="st11">
				<defs>
					<rect id="SVGID_19_" x="-63.6" y="-81.5" width="245.8" height="245.8"/>
				</defs>
				<use xlink:href="#SVGID_19_"  style="overflow:visible;fill:#263238;"/>
				<clipPath id="SVGID_20_">
					<use xlink:href="#SVGID_19_"  style="overflow:visible;"/>
				</clipPath>
				<rect x="-1.5" y="13.3" class="st12" width="19" height="16.8"/>
			</g>
		</g>
		<g>
			<defs>
				<path id="SVGID_21_" d="M14.8,11.3c1,1.7,0.5,3.8-1.1,4.9c-1.2,0.8-2.8,0.7-3.9-0.1c-1.2-0.8-1.7-2.3-1.4-3.7
					c0.3-1.4,1.4-2.4,2.9-2.7C12.7,9.5,14.1,10.1,14.8,11.3z"/>
			</defs>
			<use xlink:href="#SVGID_21_"  style="overflow:visible;fill-rule:evenodd;clip-rule:evenodd;fill:#263238;"/>
			<clipPath id="SVGID_22_">
				<use xlink:href="#SVGID_21_"  style="overflow:visible;"/>
			</clipPath>
			<g class="st13">
				<defs>
					<rect id="SVGID_23_" x="-63.6" y="-81.5" width="245.8" height="245.8"/>
				</defs>
				<use xlink:href="#SVGID_23_"  style="overflow:visible;fill:#263238;"/>
				<clipPath id="SVGID_24_">
					<use xlink:href="#SVGID_23_"  style="overflow:visible;"/>
				</clipPath>
				<rect x="5.3" y="6.6" class="st14" width="13.2" height="13.2"/>
			</g>
		</g>
	</g>
</g>
</svg>
