<?xml version="1.0" encoding="utf-8"?>
<!-- Generator: Adobe Illustrator 21.0.2, SVG Export Plug-In . SVG Version: 6.00 Build 0)  -->
<svg version="1.1" id="Layer_1" xmlns="http://www.w3.org/2000/svg" xmlns:xlink="http://www.w3.org/1999/xlink" x="0px" y="0px"
	 width="300px" height="600px" viewBox="0 0 300 600" style="enable-background:new 0 0 300 600;" xml:space="preserve">
<style type="text/css">
	.st0{fill:#A6A6A6;}
	.st1{fill:url(#SVGID_1_);}
</style>
<g>
	<path class="st0" d="M298.5,556.4v-307l-0.2-46.6v-31.3V86.8c0,0,0.1-42.1,0-51.9c-0.1-9.5-3.4-15.6-3.4-15.6
		c-4.3-9.6-12.7-13.8-17.8-15.6C268.3-0.2,242.5,0,242.5,0H57.9c0,0-25.8-0.2-34.7,3.6c-5.1,1.8-13.5,6-17.8,15.6
		c0,0-3.3,6.1-3.4,15.6c-0.1,9.8,0,51.9,0,51.9v84.8v31.3l-0.2,46.6v307c0,4.6-0.8,24.5,9.9,32.7c3.1,2.4,10.7,9,29.6,10
		c14.3,0.6,71.3,0.8,108.9,0.8s94.6-0.3,108.9-0.8c18.9-1,26.5-7.6,29.6-10C299.3,580.9,298.5,561,298.5,556.4z M290.4,553.5
		c0,1.4-0.1,2.7-0.4,4V576H10v-17.9c-0.4-1.5-0.6-3.1-0.6-4.7V51c0-1.6,0.2-3.2,0.6-4.7V25.5h280V47c0.3,1.3,0.4,2.6,0.4,4V553.5z"
		/>
	<g>
		<path class="st0" d="M297.8,169.6c1.2,0,2.2,0.9,2.2,2.1v43.5c0,1.1-1,2.1-2.2,2.1h0C297.8,210.3,297.8,169.6,297.8,169.6z"/>
		<rect x="297.8" y="170.7" class="st0" width="1.1" height="45.4"/>
	</g>
	<path class="st0" d="M2.2,171.5L2.2,171.5c-1.2,0-2.2-0.9-2.2-2.1V88.8c0-1.1,1-2.1,2.2-2.1h0C2.2,93.8,2.2,166.9,2.2,171.5z"/>
	<linearGradient id="SVGID_1_" gradientUnits="userSpaceOnUse" x1="0" y1="226.7702" x2="2.2238" y2="226.7702">
		<stop  offset="0" style="stop-color:#7A7A7A"/>
		<stop  offset="0.3118" style="stop-color:#919191"/>
		<stop  offset="0.8978" style="stop-color:#BABABA"/>
		<stop  offset="1" style="stop-color:#919191"/>
	</linearGradient>
	<path class="st1" d="M2.2,250.6c-1.2,0-2.2-0.9-2.2-2.1V205c0-1.1,1-2.1,2.2-2.1h0C2.2,210,2.2,250.6,2.2,250.6z"/>
	<ellipse cx="1.1" cy="204.5" rx="0.7" ry="0.6"/>
	<ellipse cx="1.1" cy="248.6" rx="0.7" ry="0.6"/>
	<path d="M296.2,554.6v-305l-0.1-46.2v-31.1V88.1c0,0,0.1-41.9,0-51.6C296,27,292.7,21,292.7,21c-4.3-9.6-12.5-13.7-17.5-15.5
		c-8.7-3.8-34.1-3.6-34.1-3.6H59.3c0,0-25.4-0.2-34.1,3.6c-5,1.8-13.3,6-17.5,15.5c0,0-3.3,6-3.4,15.5c-0.1,9.7,0,51.6,0,51.6v84.2
		v31.1l-0.1,46.2v305c0,4.5-0.8,24.3,9.7,32.5c3,2.4,10.5,9,29.1,9.9c14.1,0.6,70.2,0.8,107.2,0.8c37,0,93.1-0.3,107.2-0.8
		c18.6-0.9,26.1-7.6,29.1-9.9C297,578.9,296.3,559.2,296.2,554.6z M289,553.5c0,11-9.3,19.8-20.8,19.8H31.5
		c-11.5,0-20.8-8.9-20.8-19.8V48.9c0-11,9.3-19.8,20.8-19.8h236.7c11.5,0,20.8,8.9,20.8,19.8V553.5z"/>
	<g>
		<g>
			<g>
				<path class="st0" d="M131.2,17.2c-1.8,0-3.2-1.4-3.2-3c0-1.7,1.4-3,3.2-3h38.2c1.8,0,3.2,1.4,3.2,3c0,1.7-1.4,3-3.2,3H131.2z"/>
			</g>
			<g>
				<path class="st0" d="M131.2,16.5c-1.3,0-2.4-1-2.4-2.3c0-1.3,1.1-2.3,2.4-2.3h38.2c1.3,0,2.4,1,2.4,2.3c0,1.3-1.1,2.3-2.4,2.3
					H131.2z"/>
			</g>
			<g>
				<path class="st0" d="M171.5,14.2c0,1.1-1,2-2.2,2h-38.2c-1.2,0-2.2-0.9-2.2-2l0,0c0-1.1,1-2,2.2-2h38.2
					C170.5,12.2,171.5,13.1,171.5,14.2L171.5,14.2z"/>
			</g>
			<g>
				<g>
					<rect x="130.3" y="12.5" class="st0" width="1" height="0.9"/>
				</g>
				<g>
					<rect x="132.3" y="12.5" class="st0" width="1" height="0.9"/>
				</g>
				<g>
					<rect x="129.3" y="13.5" class="st0" width="1" height="0.9"/>
				</g>
				<g>
					<rect x="131.3" y="13.5" class="st0" width="1" height="0.9"/>
				</g>
				<g>
					<rect x="134.3" y="12.5" class="st0" width="1" height="0.9"/>
				</g>
				<g>
					<rect x="136.2" y="12.5" class="st0" width="1" height="0.9"/>
				</g>
				<g>
					<rect x="133.3" y="13.5" class="st0" width="1" height="0.9"/>
				</g>
				<g>
					<rect x="135.2" y="13.5" class="st0" width="1" height="0.9"/>
				</g>
				<g>
					<rect x="138.2" y="12.5" class="st0" width="1" height="0.9"/>
				</g>
				<g>
					<rect x="140.2" y="12.5" class="st0" width="1" height="0.9"/>
				</g>
				<g>
					<rect x="137.2" y="13.5" class="st0" width="1" height="0.9"/>
				</g>
				<g>
					<rect x="139.2" y="13.5" class="st0" width="1" height="0.9"/>
				</g>
				<g>
					<rect x="142.1" y="12.5" class="st0" width="1" height="0.9"/>
				</g>
				<g>
					<rect x="144.1" y="12.5" class="st0" width="1" height="0.9"/>
				</g>
				<g>
					<rect x="141.1" y="13.5" class="st0" width="1" height="0.9"/>
				</g>
				<g>
					<rect x="143.1" y="13.5" class="st0" width="1" height="0.9"/>
				</g>
				<g>
					<rect x="146.1" y="12.5" class="st0" width="1" height="0.9"/>
				</g>
				<g>
					<rect x="148" y="12.5" class="st0" width="1" height="0.9"/>
				</g>
				<g>
					<rect x="145.1" y="13.5" class="st0" width="1" height="0.9"/>
				</g>
				<g>
					<rect x="147" y="13.5" class="st0" width="1" height="0.9"/>
				</g>
				<g>
					<rect x="150" y="12.5" class="st0" width="1" height="0.9"/>
				</g>
				<g>
					<rect x="152" y="12.5" class="st0" width="1" height="0.9"/>
				</g>
				<g>
					<rect x="149" y="13.5" class="st0" width="1" height="0.9"/>
				</g>
				<g>
					<rect x="151" y="13.5" class="st0" width="1" height="0.9"/>
				</g>
				<g>
					<rect x="153.9" y="12.5" class="st0" width="1" height="0.9"/>
				</g>
				<g>
					<rect x="155.9" y="12.5" class="st0" width="1" height="0.9"/>
				</g>
				<g>
					<rect x="152.9" y="13.5" class="st0" width="1" height="0.9"/>
				</g>
				<g>
					<rect x="154.9" y="13.5" class="st0" width="1" height="0.9"/>
				</g>
				<g>
					<rect x="157.9" y="12.5" class="st0" width="1" height="0.9"/>
				</g>
				<g>
					<rect x="159.8" y="12.5" class="st0" width="1" height="0.9"/>
				</g>
				<g>
					<rect x="156.9" y="13.5" class="st0" width="1" height="0.9"/>
				</g>
				<g>
					<rect x="158.8" y="13.5" class="st0" width="1" height="0.9"/>
				</g>
				<g>
					<rect x="161.8" y="12.5" class="st0" width="1" height="0.9"/>
				</g>
				<g>
					<rect x="163.8" y="12.5" class="st0" width="1" height="0.9"/>
				</g>
				<g>
					<rect x="160.8" y="13.5" class="st0" width="1" height="0.9"/>
				</g>
				<g>
					<rect x="162.8" y="13.5" class="st0" width="1" height="0.9"/>
				</g>
				<g>
					<rect x="165.7" y="12.5" class="st0" width="1" height="0.9"/>
				</g>
				<g>
					<rect x="167.7" y="12.5" class="st0" width="1" height="0.9"/>
				</g>
				<g>
					<rect x="164.7" y="13.5" class="st0" width="1" height="0.9"/>
				</g>
				<g>
					<rect x="166.7" y="13.5" class="st0" width="1" height="0.9"/>
				</g>
				<g>
					<rect x="169.7" y="12.5" class="st0" width="1" height="0.9"/>
				</g>
				<g>
					<rect x="168.7" y="13.5" class="st0" width="1" height="0.9"/>
				</g>
				<g>
					<rect x="170.6" y="13.5" class="st0" width="1" height="0.9"/>
				</g>
				<g>
					<rect x="130.3" y="14.4" class="st0" width="1" height="0.9"/>
				</g>
				<g>
					<rect x="132.3" y="14.4" class="st0" width="1" height="0.9"/>
				</g>
				<g>
					<rect x="129.3" y="15.3" class="st0" width="1" height="0.9"/>
				</g>
				<g>
					<rect x="131.3" y="15.3" class="st0" width="1" height="0.9"/>
				</g>
				<g>
					<rect x="134.3" y="14.4" class="st0" width="1" height="0.9"/>
				</g>
				<g>
					<rect x="136.2" y="14.4" class="st0" width="1" height="0.9"/>
				</g>
				<g>
					<rect x="133.3" y="15.3" class="st0" width="1" height="0.9"/>
				</g>
				<g>
					<rect x="135.2" y="15.3" class="st0" width="1" height="0.9"/>
				</g>
				<g>
					<rect x="138.2" y="14.4" class="st0" width="1" height="0.9"/>
				</g>
				<g>
					<rect x="140.2" y="14.4" class="st0" width="1" height="0.9"/>
				</g>
				<g>
					<rect x="137.2" y="15.3" class="st0" width="1" height="0.9"/>
				</g>
				<g>
					<rect x="139.2" y="15.3" class="st0" width="1" height="0.9"/>
				</g>
				<g>
					<rect x="142.1" y="14.4" class="st0" width="1" height="0.9"/>
				</g>
				<g>
					<rect x="144.1" y="14.4" class="st0" width="1" height="0.9"/>
				</g>
				<g>
					<rect x="141.1" y="15.3" class="st0" width="1" height="0.9"/>
				</g>
				<g>
					<rect x="143.1" y="15.3" class="st0" width="1" height="0.9"/>
				</g>
				<g>
					<rect x="146.1" y="14.4" class="st0" width="1" height="0.9"/>
				</g>
				<g>
					<rect x="148" y="14.4" class="st0" width="1" height="0.9"/>
				</g>
				<g>
					<rect x="145.1" y="15.3" class="st0" width="1" height="0.9"/>
				</g>
				<g>
					<rect x="147" y="15.3" class="st0" width="1" height="0.9"/>
				</g>
				<g>
					<rect x="150" y="14.4" class="st0" width="1" height="0.9"/>
				</g>
				<g>
					<rect x="152" y="14.4" class="st0" width="1" height="0.9"/>
				</g>
				<g>
					<rect x="149" y="15.3" class="st0" width="1" height="0.9"/>
				</g>
				<g>
					<rect x="151" y="15.3" class="st0" width="1" height="0.9"/>
				</g>
				<g>
					<rect x="153.9" y="14.4" class="st0" width="1" height="0.9"/>
				</g>
				<g>
					<rect x="155.9" y="14.4" class="st0" width="1" height="0.9"/>
				</g>
				<g>
					<rect x="152.9" y="15.3" class="st0" width="1" height="0.9"/>
				</g>
				<g>
					<rect x="154.9" y="15.3" class="st0" width="1" height="0.9"/>
				</g>
				<g>
					<rect x="157.9" y="14.4" class="st0" width="1" height="0.9"/>
				</g>
				<g>
					<rect x="159.8" y="14.4" class="st0" width="1" height="0.9"/>
				</g>
				<g>
					<rect x="156.9" y="15.3" class="st0" width="1" height="0.9"/>
				</g>
				<g>
					<rect x="158.8" y="15.3" class="st0" width="1" height="0.9"/>
				</g>
				<g>
					<rect x="161.8" y="14.4" class="st0" width="1" height="0.9"/>
				</g>
				<g>
					<rect x="163.8" y="14.4" class="st0" width="1" height="0.9"/>
				</g>
				<g>
					<rect x="160.8" y="15.3" class="st0" width="1" height="0.9"/>
				</g>
				<g>
					<rect x="162.8" y="15.3" class="st0" width="1" height="0.9"/>
				</g>
				<g>
					<rect x="165.7" y="14.4" class="st0" width="1" height="0.9"/>
				</g>
				<g>
					<rect x="167.7" y="14.4" class="st0" width="1" height="0.9"/>
				</g>
				<g>
					<rect x="164.7" y="15.3" class="st0" width="1" height="0.9"/>
				</g>
				<g>
					<rect x="166.7" y="15.3" class="st0" width="1" height="0.9"/>
				</g>
				<g>
					<rect x="169.7" y="14.4" class="st0" width="1" height="0.9"/>
				</g>
				<g>
					<rect x="168.7" y="15.3" class="st0" width="1" height="0.9"/>
				</g>
				<g>
					<rect x="170.6" y="15.3" class="st0" width="1" height="0.9"/>
				</g>
			</g>
		</g>
	</g>
</g>
</svg>
