<?xml version="1.0" encoding="utf-8"?>
<!-- Generator: Adobe Illustrator 21.0.2, SVG Export Plug-In . SVG Version: 6.00 Build 0)  -->
<svg version="1.1" id="Слой_1" xmlns="http://www.w3.org/2000/svg" xmlns:xlink="http://www.w3.org/1999/xlink" x="0px" y="0px"
	 width="100px" height="30px" viewBox="0 0 100 30" style="enable-background:new 0 0 100 30;" xml:space="preserve">
<style type="text/css">
	.st0{opacity:0.8;}
	.st1{fill:#EAB82D;}
</style>
<g class="st0">
	<path class="st1" d="M100,30H0l1.2-1.2c1.2-1.2,1.2-3.1,0-4.2L0,23.3l1.1-5.6L0,15l1.3-3.2L0,10l1.9-1.9c0.8-0.8,0.8-2,0-2.8L0,3.3
		V0h100l-3.3,3.3l3.3,1.8L97.3,9c-0.4,0.5-0.3,1.3,0.2,1.7l2.5,2.4l-1.7,3.5L96.7,20l2.7,2.7c0.3,0.3,0.3,0.9,0,1.2l-2.7,2.7L100,30
		z"/>
</g>
<path class="st1" d="M65,11.5"/>
</svg>
