<?xml version="1.0" encoding="utf-8"?>
<!-- Generator: Adobe Illustrator 21.0.2, SVG Export Plug-In . SVG Version: 6.00 Build 0)  -->
<svg version="1.1" id="Capa_1" xmlns="http://www.w3.org/2000/svg" xmlns:xlink="http://www.w3.org/1999/xlink" x="0px" y="0px"
	 width="52.3px" height="52.3px" viewBox="0 0 52.3 52.3" style="enable-background:new 0 0 52.3 52.3;" xml:space="preserve">
<style type="text/css">
	.st0{fill:#222426;}
</style>
<g>
	<g>
		<path class="st0" d="M45.3,7c-1.6-1.6-3.5-2.4-5.7-2.4H12.7C10.5,4.7,8.6,5.5,7,7c-1.6,1.6-2.4,3.5-2.4,5.7v26.9
			c0,2.2,0.8,4.1,2.4,5.7c1.6,1.6,3.5,2.4,5.7,2.4h26.9c2.2,0,4.1-0.8,5.7-2.4c1.6-1.6,2.4-3.5,2.4-5.7V12.7
			C47.7,10.5,46.9,8.6,45.3,7z M40.5,27.1c0,0.8-0.4,1.3-1.1,1.7c-0.2,0.1-0.5,0.1-0.7,0.1c-0.5,0-0.9-0.2-1.3-0.5l-4-4L18.5,39.2
			c-0.4,0.4-0.8,0.5-1.3,0.5c-0.5,0-0.9-0.2-1.3-0.5l-2.9-2.9c-0.4-0.4-0.5-0.8-0.5-1.3c0-0.5,0.2-0.9,0.5-1.3L28,18.9l-4-4
			c-0.6-0.5-0.7-1.2-0.4-2c0.3-0.7,0.9-1.1,1.7-1.1h13.4c0.5,0,0.9,0.2,1.3,0.5c0.4,0.4,0.5,0.8,0.5,1.3L40.5,27.1L40.5,27.1z"/>
	</g>
</g>
</svg>
