<?xml version="1.0" encoding="utf-8"?>
<!-- Generator: Adobe Illustrator 21.0.2, SVG Export Plug-In . SVG Version: 6.00 Build 0)  -->
<svg version="1.1" id="Capa_1" xmlns="http://www.w3.org/2000/svg" xmlns:xlink="http://www.w3.org/1999/xlink" x="0px" y="0px"
	 width="100px" height="100px" viewBox="0 0 100 100" style="enable-background:new 0 0 100 100;" xml:space="preserve">
<style type="text/css">
	.st0{fill:#1C82E8;}
	.st1{enable-background:new    ;}
	.st2{fill:#FFFFFF;}
</style>
<g>
	<path class="st0" d="M50,5C25.1,5,5,25.1,5,50s20.1,45,45,45c10,0,19.2-3.3,26.7-8.7c-0.4,0-0.8-0.2-1.1-0.5l-7.4-8.2l-4,6.1L61,67
		l16.9,5.2l-7.3,3.1l7.4,8.2c0.3,0.4,0.5,0.9,0.4,1.4C88.5,76.7,95,64.1,95,50C95,25.1,74.9,5,50,5z"/>
	<g class="st1">
		<path class="st2" d="M21.8,53.2l0.4,2.3l0,0l0.5-2.3l3.3-10.6h2.3l3.3,10.6l0.5,2.5h0l0.5-2.5l2.7-10.6h2.8l-4.8,16.5h-2.3L28,49
			l-0.7-3h0l-0.7,3l-3.2,10.2H21l-4.8-16.5H19L21.8,53.2z"/>
		<path class="st2" d="M45.5,53.2l0.4,2.3l0,0l0.5-2.3l3.3-10.6h2.3l3.3,10.6l0.5,2.5h0l0.5-2.5l2.7-10.6H62l-4.8,16.5h-2.3L51.6,49
			l-0.7-3h0l-0.7,3L47,59.1h-2.3l-4.8-16.5h2.8L45.5,53.2z"/>
		<path class="st2" d="M69.2,53.2l0.4,2.3l0,0l0.5-2.3l3.3-10.6h2.3l3.3,10.6l0.5,2.5h0l0.5-2.5l2.7-10.6h2.8l-4.8,16.5h-2.3
			L75.3,49l-0.7-3h0l-0.7,3l-3.2,10.2h-2.3l-4.8-16.5h2.8L69.2,53.2z"/>
	</g>
</g>
</svg>
