<?xml version="1.0" encoding="utf-8"?>
<!-- Generator: Adobe Illustrator 21.0.2, SVG Export Plug-In . SVG Version: 6.00 Build 0)  -->
<svg version="1.1" id="Layer_1" xmlns="http://www.w3.org/2000/svg" xmlns:xlink="http://www.w3.org/1999/xlink" x="0px" y="0px"
	 width="100px" height="100px" viewBox="0 0 100 100" style="enable-background:new 0 0 100 100;" xml:space="preserve">
<style type="text/css">
	.st1{fill:#FFFFFF;}
</style>
<path class="st1" d="M15.4,33.1c-3.3,0-5.9,2.6-5.9,5.9v24.7c0,3.3,2.6,5.9,5.9,5.9s5.9-2.6,5.9-5.9V39
	C21.3,35.8,18.7,33.1,15.4,33.1 M63,10.9l4.1-7.5c0.2-0.4,0.1-0.9-0.3-1.1c-0.4-0.2-0.9-0.1-1.1,0.3l-4.2,7.6
	C58,8.6,54.1,7.8,50,7.8s-8.1,0.9-11.5,2.4l-4.2-7.6c-0.2-0.4-0.7-0.5-1.1-0.3c-0.4,0.2-0.5,0.7-0.3,1.1l4.1,7.5
	C28.9,15.1,23.4,23,23.4,32.2h53.2C76.6,23,71.1,15.1,63,10.9 M37.9,22.5c-1.2,0-2.2-1-2.2-2.2s1-2.2,2.2-2.2s2.2,1,2.2,2.2
	C40.1,21.5,39.1,22.5,37.9,22.5 M62.1,22.5c-1.2,0-2.2-1-2.2-2.2s1-2.2,2.2-2.2s2.2,1,2.2,2.2C64.3,21.5,63.3,22.5,62.1,22.5
	 M23.6,34.2v38.3c0,3.5,2.8,6.3,6.3,6.3h4.3v13.1c0,3.3,2.6,5.9,5.9,5.9c3.3,0,5.9-2.7,5.9-5.9V78.8h8v13.1c0,3.3,2.6,5.9,5.9,5.9
	c3.3,0,5.9-2.6,5.9-5.9V78.8h4.3c3.5,0,6.3-2.8,6.3-6.3V34.2H23.6z M90.5,39c0-3.3-2.6-5.9-5.9-5.9s-5.9,2.6-5.9,5.9v24.7
	c0,3.3,2.6,5.9,5.9,5.9s5.9-2.6,5.9-5.9V39z"/>
</svg>
