<?xml version="1.0" encoding="utf-8"?>
<!-- Generator: Adobe Illustrator 21.0.2, SVG Export Plug-In . SVG Version: 6.00 Build 0)  -->
<svg version="1.1"
	 id="Layer_1" inkscape:version="0.48.1 " sodipodi:docname="20111009182803!Apple_Computer_Logo_rainbow.svg" xmlns:cc="http://creativecommons.org/ns#" xmlns:dc="http://purl.org/dc/elements/1.1/" xmlns:inkscape="http://www.inkscape.org/namespaces/inkscape" xmlns:rdf="http://www.w3.org/1999/02/22-rdf-syntax-ns#" xmlns:sodipodi="http://sodipodi.sourceforge.net/DTD/sodipodi-0.dtd" xmlns:svg="http://www.w3.org/2000/svg"
	 xmlns="http://www.w3.org/2000/svg" xmlns:xlink="http://www.w3.org/1999/xlink" x="0px" y="0px" width="104px" height="104px"
	 viewBox="0 0 104 104" style="enable-background:new 0 0 104 104;" xml:space="preserve">
<style type="text/css">
	.st0{fill:#61BB46;stroke:#61BB46;stroke-width:2.9849;stroke-miterlimit:2.6131;}
	.st1{fill:#FDB827;}
	.st2{fill:#F5821F;stroke:#F5821F;stroke-width:2.9849;stroke-miterlimit:2.6131;}
	.st3{fill:#E03A3E;stroke:#E03A3E;stroke-width:2.9849;stroke-miterlimit:2.6131;}
	.st4{fill:#963D97;stroke:#963D97;stroke-width:2.9849;stroke-miterlimit:2.6131;}
	.st5{fill:#009DDC;stroke:#009DDC;stroke-width:2.9849;stroke-miterlimit:2.6131;}
</style>
<sodipodi:namedview  bordercolor="#666666" borderopacity="1" gridtolerance="10" guidetolerance="10" id="namedview21" inkscape:current-layer="Layer_1" inkscape:cx="249.76199" inkscape:cy="277.27301" inkscape:guide-bbox="true" inkscape:pageopacity="0" inkscape:pageshadow="2" inkscape:window-height="738" inkscape:window-maximized="1" inkscape:window-width="1280" inkscape:window-x="-8" inkscape:window-y="-8" inkscape:zoom="0.93590068" objecttolerance="10" pagecolor="#ffffff" showgrid="false" showguides="true">
	</sodipodi:namedview>
<g>
	<path id="path5" inkscape:connector-curvature="0" class="st0" d="M13.3,38.2c0,0,0.1-0.1,0.1-0.1c5.2-8,13.3-12.6,20.9-12.6
		c7.8,0,12.7,4.3,19.1,4.3c6.2,0,10-4.3,19-4.3c6.8,0,14,3.7,19.1,10.1c-1.4,0.8-2.7,1.7-3.8,2.6L13.3,38.2L13.3,38.2L13.3,38.2z"/>
	<path id="path7" inkscape:connector-curvature="0" class="st0" d="M65.7,18.3c3.3-4.2,5.7-10.2,4.8-16.2
		c-5.3,0.4-11.6,3.8-15.2,8.2c-3.3,4-6,10-5,15.8C56.1,26.3,62.2,22.8,65.7,18.3L65.7,18.3L65.7,18.3z"/>
	<path id="path9" inkscape:connector-curvature="0" sodipodi:nodetypes="ccccccc" class="st1" d="M13.1,38.1
		c-2.2,3.5-3.8,8.5-4.2,12.9l72,0c0.8-4.8,3.4-9.4,7.5-12.9L13.1,38.1L13.1,38.1L13.1,38.1z"/>
	<path id="path11" inkscape:connector-curvature="0" class="st2" d="M9.6,63.8C8.9,59.3,8.8,55,9.2,51l71.4,0
		c-0.7,4.3-0.1,8.8,1.7,12.8L9.6,63.8L9.6,63.8L9.6,63.8z"/>
	<path id="path13" inkscape:connector-curvature="0" class="st3" d="M13.1,76.5c-1.7-4.3-2.8-8.6-3.5-12.8l72.7,0
		c2.3,5.1,6.4,9.4,12.3,11.6c-0.2,0.4-0.3,0.8-0.5,1.1L13.1,76.5L13.1,76.5L13.1,76.5z"/>
	<path id="path15" inkscape:connector-curvature="0" class="st4" d="M94,76.5c-2,4.4-3.2,6.8-6,11c-0.4,0.6-0.8,1.2-1.2,1.7l-67.1,0
		c-0.2-0.3-0.4-0.6-0.6-1c-2.5-3.8-4.5-7.8-6.1-11.8L94,76.5L94,76.5z"/>
	<path id="path19" inkscape:connector-curvature="0" class="st5" d="M86.9,89.3c-4.1,6-9.6,12.7-16.3,12.7c-6.5,0.1-8.2-4.3-17-4.2
		c-8.9,0-10.7,4.3-17.2,4.2c-7-0.1-12.4-6.6-16.5-12.8L86.9,89.3L86.9,89.3z"/>
</g>
</svg>
