<?xml version="1.0" encoding="utf-8"?>
<!-- Generator: Adobe Illustrator 21.0.2, SVG Export Plug-In . SVG Version: 6.00 Build 0)  -->
<svg version="1.1" id="Слой_1" xmlns="http://www.w3.org/2000/svg" xmlns:xlink="http://www.w3.org/1999/xlink" x="0px" y="0px"
	 width="100px" height="100px" viewBox="0 0 100 100" style="enable-background:new 0 0 100 100;" xml:space="preserve">
<style type="text/css">
	.st0{fill:#FFFFFF;}
</style>
<g>
	<path class="st0" d="M87.9,76.3c-1.4,3.3-3.1,6.3-5.1,9.1c-2.7,3.8-4.8,6.4-6.5,7.9c-2.6,2.4-5.4,3.6-8.4,3.7
		c-2.1,0-4.7-0.6-7.7-1.8c-3-1.2-5.8-1.8-8.3-1.8c-2.7,0-5.5,0.6-8.6,1.8c-3.1,1.2-5.5,1.9-7.4,1.9c-2.9,0.1-5.7-1.1-8.6-3.8
		c-1.8-1.6-4.1-4.3-6.8-8.1c-2.9-4.1-5.3-8.9-7.2-14.3c-2-5.9-3-11.5-3-17c0-6.3,1.4-11.7,4.1-16.3c2.1-3.7,5-6.5,8.6-8.7
		s7.4-3.2,11.6-3.3c2.3,0,5.3,0.7,9,2.1s6.1,2.1,7.1,2.1c0.8,0,3.4-0.8,7.9-2.5c4.2-1.5,7.8-2.1,10.7-1.9c7.9,0.6,13.9,3.8,17.8,9.4
		C80,39,76.5,45,76.6,52.7c0.1,6,2.2,11,6.5,15c1.9,1.8,4.1,3.3,6.5,4.3C89.1,73.4,88.5,74.9,87.9,76.3L87.9,76.3z M69.8,4.9
		c0,4.7-1.7,9.1-5.1,13.2c-4.1,4.8-9.1,7.6-14.5,7.2C50,24.7,50,24.1,50,23.4c0-4.5,2-9.3,5.5-13.3c1.7-2,4-3.7,6.6-5
		c2.7-1.3,5.2-2,7.6-2.2C69.8,3.6,69.8,4.3,69.8,4.9L69.8,4.9z"/>
</g>
</svg>
