<?xml version="1.0" encoding="iso-8859-1"?>
<!-- Generator: Adobe Illustrator 19.0.0, SVG Export Plug-In . SVG Version: 6.00 Build 0)  -->
<svg xmlns="http://www.w3.org/2000/svg" xmlns:xlink="http://www.w3.org/1999/xlink" version="1.1" id="Capa_1" x="0px" y="0px" viewBox="0 0 380 380" style="enable-background:new 0 0 380 380;" xml:space="preserve" width="512px" height="512px">
<g>
	<g>
		<path d="M72.4,295.04h-16v29.84c0,40.64,28.48,55.12,55.12,55.12h156.96c40.64,0,55.12-28.48,55.12-55.12v-29.84H72.4z     M199.68,364c-14.699,5.346-30.948-2.235-36.294-16.934c-1.113-3.06-1.69-6.29-1.706-9.546    c-0.074-15.641,12.545-28.38,28.186-28.454c15.641-0.074,28.38,12.545,28.454,28.185C218.376,349.209,210.917,359.913,199.68,364z    " fill="#FFFFFF"/>
	</g>
</g>
<g>
	<g>
		<circle cx="190" cy="337.52" r="12.32" fill="#FFFFFF"/>
	</g>
</g>
<g>
	<g>
		<polygon points="307.6,73.84 72.4,73.84 56.4,73.84 56.4,279.04 72.4,279.04 307.6,279.04 323.6,279.04 323.6,73.84   " fill="#FFFFFF"/>
	</g>
</g>
<g>
	<g>
		<path d="M268.48,0H110C97.44,0,56.56,4,56.56,55.12v2.72H323.6v-2.72C323.6,14.48,295.12,0,268.48,0z M208.96,45.28h-0.08h-37.76    c-4.418,0-8-3.582-8-8c0-4.418,3.582-8,8-8h37.84c4.418,0,8,3.582,8,8C216.96,41.698,213.378,45.28,208.96,45.28z" fill="#FFFFFF"/>
	</g>
</g>
<g>
</g>
<g>
</g>
<g>
</g>
<g>
</g>
<g>
</g>
<g>
</g>
<g>
</g>
<g>
</g>
<g>
</g>
<g>
</g>
<g>
</g>
<g>
</g>
<g>
</g>
<g>
</g>
<g>
</g>
</svg>
