<?xml version="1.0" encoding="utf-8"?>
<!-- Generator: Adobe Illustrator 21.0.2, SVG Export Plug-In . SVG Version: 6.00 Build 0)  -->
<svg version="1.1" id="Capa_1" xmlns="http://www.w3.org/2000/svg" xmlns:xlink="http://www.w3.org/1999/xlink" x="0px" y="0px"
	 width="512px" height="512px" viewBox="0 0 512 512" style="enable-background:new 0 0 512 512;" xml:space="preserve">
<style type="text/css">
	.st0{fill:#FFFFFF;}
</style>
<g>
	<path class="st0" d="M432.2,55H294c-13.7,0-24.8,11.1-24.8,24.8s11.1,24.8,24.8,24.8h78.4L241.6,235.3c-4.7,4.7-7.3,10.9-7.3,17.5
		s2.6,12.8,7.3,17.5c4.7,4.7,10.9,7.3,17.5,7.3c6.6,0,12.8-2.6,17.5-7.3l130.8-130.8V218c0,13.7,11.1,24.8,24.8,24.8
		c13.7,0,24.8-11.1,24.8-24.8V79.8C457,66.1,445.9,55,432.2,55z"/>
	<path class="st0" d="M339.8,414.5H97.5V172.2h182.2l42.5-42.5h-246c-11.7,0-21.2,9.5-21.2,21.2v284.8c0,11.7,9.5,21.2,21.2,21.2
		H361c11.7,0,21.2-9.5,21.2-21.2v-246l-42.5,42.5V414.5z"/>
</g>
</svg>
